<svg width="168" height="35" viewBox="0 0 168 35" fill="none" xmlns="http://www.w3.org/2000/svg">
<path d="M2.5442 33.324V13.9785H8.49667C8.68868 13.7384 8.8807 13.4504 9.07271 13.1624H2.5442V1.7375H9.98478C10.2248 1.44948 10.4648 1.16145 10.7048 0.921432H0.960076V34.14H10.7048C10.4648 33.852 10.2248 33.564 9.98478 33.324H2.5442ZM25.5448 0.921432V29.4357L13.4478 1.49748L13.2078 0.921432H12.6797V34.092H13.4478V5.6258L25.5448 33.516L25.8328 34.092H26.3608V0.921432H25.5448ZM49.3629 24.2033H54.8353V30.7798C54.2593 31.1638 53.6832 31.5478 53.0592 31.8359C47.1547 34.7641 39.6181 33.612 34.4817 28.4756C28.0972 22.0911 27.8572 12.0583 33.9057 5.96183C39.6661 0.249379 49.0269 0.201376 55.4114 5.67381C55.7954 5.28978 56.1314 4.85774 56.4674 4.42571C53.4912 1.92951 49.6509 0.393392 45.4266 0.393392C35.9698 0.393392 28.3372 8.07399 28.3372 17.5307C28.3372 26.9875 35.9698 34.6201 45.4266 34.6201C47.8748 34.6201 50.2269 34.092 52.3391 33.18C53.5872 32.6519 54.7873 31.9319 55.8914 31.0678C56.0834 30.9238 56.2754 30.7318 56.4674 30.5878V23.3872H48.6428C48.8828 23.6752 49.1229 23.9632 49.3629 24.2033ZM60.0175 33.324C60.0175 22.5231 60.0175 11.7223 60.0175 0.921432H58.4333V34.14H68.1781C67.9381 33.852 67.6981 33.564 67.4581 33.324H60.0175ZM71.7371 34.14V0.921432H70.153V34.14H71.7371ZM86.1488 22.6191C83.4126 16.9067 78.3722 17.0507 76.02 11.3863C75.1079 9.22609 75.2999 7.78597 75.2999 7.20993C75.3479 3.89767 77.7001 1.20945 80.5803 1.20945C82.3085 1.20945 83.8446 2.16953 84.7567 3.65765C85.3807 4.61772 85.7647 5.76981 85.8127 6.96991C86.2448 6.48987 86.7248 5.91383 87.1568 5.38578C87.0128 4.80974 86.7248 4.23369 86.3888 3.65765C85.1887 1.7375 83.0285 0.393392 80.5803 0.393392C76.836 0.393392 73.7158 3.46563 73.7158 7.20993C73.6678 9.51411 74.1958 11.2902 74.7239 12.3943C77.4601 18.1068 82.5485 18.0108 84.8527 23.6272C85.7647 25.7874 85.5727 27.2755 85.5727 27.8035C85.5247 31.1158 83.1725 33.852 80.2923 33.852C78.5642 33.852 77.0281 32.8439 76.116 31.3558C75.4919 30.3958 75.1079 29.2917 75.0599 28.0436C74.6279 28.5716 74.1478 29.0996 73.7158 29.6277C73.8598 30.2517 74.1478 30.8278 74.4358 31.3558C75.6839 33.324 77.8441 34.6201 80.2923 34.6201C84.0366 34.6201 87.1568 31.5478 87.1568 27.8035C87.2049 25.5474 86.6768 23.7232 86.1488 22.6191ZM90.723 34.14V21.323H101.188V34.14H102.82V0.921432H101.188V20.507H90.723V0.921432H89.1389V34.14H90.723ZM123.156 14.4585C122.676 14.2665 122.196 14.1225 121.668 13.9785C121.908 13.8825 122.148 13.7864 122.388 13.6424C124.596 12.4903 126.133 10.1382 126.133 7.44995C126.133 3.56164 122.964 0.393392 119.076 0.393392C118.164 0.393392 117.3 0.585407 116.484 0.921432C116.244 0.969435 116.052 1.11345 115.86 1.20945V34.14C116.868 34.4761 117.972 34.6201 119.076 34.6201C124.884 34.6201 129.589 29.9637 129.589 24.1553C129.589 19.7869 126.901 16.0426 123.156 14.4585ZM117.444 1.49748C117.972 1.30546 118.548 1.20945 119.076 1.20945C122.1 1.20945 124.5 3.99367 124.5 7.44995C124.5 10.8582 122.1 13.6424 119.076 13.6424H117.444V1.49748ZM119.076 33.804C118.548 33.804 118.02 33.756 117.444 33.66V14.4585H119.076C123.972 14.4585 127.957 18.8268 127.957 24.1553C127.957 29.4837 123.972 33.804 119.076 33.804ZM139.483 0.393392C139.099 0.873429 138.667 1.35347 138.283 1.8335L129.642 34.14H130.458L133.818 21.7071H143.611L146.923 34.14H148.556L139.483 0.393392ZM134.01 20.891L138.715 3.41763L143.371 20.891H134.01ZM150.503 0.921432V34.14H152.087V21.227C152.663 21.323 153.191 21.371 153.719 21.371C154.631 21.371 155.495 21.275 156.36 21.035L165.576 34.14H167.208L157.656 20.603C161.496 19.0669 164.232 15.2746 164.232 10.9062C164.232 5.09776 159.528 0.393392 153.719 0.393392C152.615 0.393392 151.511 0.585407 150.503 0.921432ZM152.087 20.363V1.35347C152.615 1.25746 153.191 1.20945 153.719 1.20945C158.616 1.20945 162.6 5.52979 162.6 10.9062C162.6 16.2346 158.616 20.555 153.719 20.555C153.191 20.555 152.615 20.507 152.087 20.363Z" fill="#373737"/>
</svg>
